# xmcd CD database file
#
# Track frame offsets:
#	182
#	10777
#	20960
#	28587
#	39087
#	48272
#	59805
#	70292
#	83360
#	92750
#	106062
#	116785
#	126737
#	140262
#	152555
#	165350
#	176567
#	199450
#	209115
#	237990
#	251665
#	264712
#	281112
#	292222
#	306657
#
# Disc length: 4245 seconds
#
# Revision: 1
# Processed by: cddbd v1.5.1PL0 Copyright (c) Steve Scherf et al.
# Submitted via: CDex 1.51
#
DISCID=7f109319
DTITLE=Rockin' Ramrods, The - The Best Of The Rockin' Ramrods (1963-71)
DYEAR=1995
DGENRE=Jazz
TTITLE0=Jungle Call
TTITLE1=I Wanna Be Your Man
TTITLE2=I'll Be On My Way
TTITLE3=Don't Fool With Fu Manchu
TTITLE4=Tears Melt The Stones
TTITLE5=Play It! (from The Film "East Is East")
TTITLE6=Bright Lit Blue Skies
TTITLE7=Mr. Wind
TTITLE8=Can't You See (prev. unreleased)
TTITLE9=Mary Mary
TTITLE10=Flowers In My Mind
TTITLE11=Vacuum
TTITLE12=Trees
TTITLE13=Rainy Day
TTITLE14=Looking My Window (unplugged) (prev. unreleased)
TTITLE15=Who Do You Think You Are?
TTITLE16=Of Not Being Able To Sleep
TTITLE17=Dead Thoughts Of Alfred
TTITLE18=I Sure Need You
TTITLE19=When I Wake Up In The Morning
TTITLE20=Go With You
TTITLE21=Changes
TTITLE22=My Vision Has Cleared (prev. unreleased)
TTITLE23=I Don't Want To I Will (prev. unreleased)
TTITLE24=Troubles (prev. unreleased)
EXTD=YEAR: 1995
EXTT0=
EXTT1=
EXTT2=
EXTT3=
EXTT4=
EXTT5=
EXTT6=
EXTT7=
EXTT8=
EXTT9=
EXTT10=
EXTT11=
EXTT12=
EXTT13=
EXTT14=
EXTT15=
EXTT16=
EXTT17=
EXTT18=
EXTT19=
EXTT20=
EXTT21=
EXTT22=
EXTT23=
EXTT24=
PLAYORDER=
